HIERARCHY
ROOT root
{
	OFFSET	0	13.1	24.9
	CHANNELS 6  Xposition Yposition Zposition Xrotation Yrotation Zrotation
	JOINT spine_1
	{
		OFFSET	0	9.99999	0
		CHANNELS 3  Xrotation Yrotation Zrotation
		JOINT spine_2
		{
			OFFSET	0	112	-10
			CHANNELS 3  Xrotation Yrotation Zrotation
			JOINT spine_3
			{
				OFFSET	0	206.5	19.3
				CHANNELS 3  Xrotation Yrotation Zrotation
				JOINT spine_4
				{
					OFFSET	0	110.4	14.6
					CHANNELS 3  Xrotation Yrotation Zrotation
					JOINT neck_1
					{
						OFFSET	0	71.8	-50.3
						CHANNELS 3  Xrotation Yrotation Zrotation
						JOINT neck_2
						{
							OFFSET	0	86.2	-25.8
							CHANNELS 3  Xrotation Yrotation Zrotation
							JOINT head_ee
							{
								OFFSET	0	179.8	-8.7
								CHANNELS 3  Xrotation Yrotation Zrotation
								End Site
								{
									OFFSET	1	0	0
								}
							}
						}
					}
					JOINT left_clavicle
					{
						OFFSET	-43.2	22.4	-70.8
						CHANNELS 3  Xrotation Yrotation Zrotation
						JOINT left_shoulder
						{
							OFFSET	-93.9	-5.79999	48.7
							CHANNELS 3  Xrotation Yrotation Zrotation
							JOINT left_elbow
							{
								OFFSET	-291.4	-30.8	15.2
								CHANNELS 3  Xrotation Yrotation Zrotation
								JOINT left_lowarm_twist
								{
									OFFSET	-110.7	-3.89999	13.6
									CHANNELS 3  Xrotation Yrotation Zrotation
									JOINT left_hand
									{
										OFFSET	-110.7	-3.89999	13.6
										CHANNELS 3  Xrotation Yrotation Zrotation
										JOINT left_ee
										{
											OFFSET	-80.8	-5.10001	12.1
											CHANNELS 3  Xrotation Yrotation Zrotation
											End Site
											{
												OFFSET	1	0	0
											}
										}
									}
								}
							}
						}
					}
					JOINT right_clavicle
					{
						OFFSET	43.2	22.4	-70.8
						CHANNELS 3  Xrotation Yrotation Zrotation
						JOINT right_shoulder
						{
							OFFSET	93.9	-5.79999	48.7
							CHANNELS 3  Xrotation Yrotation Zrotation
							JOINT right_elbow
							{
								OFFSET	291.4	-30.8	15.2
								CHANNELS 3  Xrotation Yrotation Zrotation
								JOINT right_lowarm_twist
								{
									OFFSET	110.7	-3.89999	13.6
									CHANNELS 3  Xrotation Yrotation Zrotation
									JOINT right_hand
									{
										OFFSET	110.7	-3.89999	13.6
										CHANNELS 3  Xrotation Yrotation Zrotation
										JOINT right_ee
										{
											OFFSET	80.8	-5.10001	12.1
											CHANNELS 3  Xrotation Yrotation Zrotation
											End Site
											{
												OFFSET	1	0	0
											}
										}
									}
								}
							}
						}
					}
				}
			}
		}
	}
	JOINT left_hip
	{
		OFFSET	-82.8	-127.5	0.300001
		CHANNELS 3  Xrotation Yrotation Zrotation
		JOINT left_knee
		{
			OFFSET	-28.2	-396.7	2.2
			CHANNELS 3  Xrotation Yrotation Zrotation
			JOINT left_ankle
			{
				OFFSET	-11.7	-411.3	35.4
				CHANNELS 3  Xrotation Yrotation Zrotation
				JOINT left_toes
				{
					OFFSET	0	-60	-88.6
					CHANNELS 3  Xrotation Yrotation Zrotation
					JOINT left_foot_ee
					{
						OFFSET	-22.5	-16.5	-42.2
						CHANNELS 3  Xrotation Yrotation Zrotation
						End Site
						{
							OFFSET	1	0	0
						}
					}
				}
			}
		}
	}
	JOINT right_hip
	{
		OFFSET	82.8	-127.5	0.300001
		CHANNELS 3  Xrotation Yrotation Zrotation
		JOINT right_knee
		{
			OFFSET	28.2	-396.7	2.2
			CHANNELS 3  Xrotation Yrotation Zrotation
			JOINT right_ankle
			{
				OFFSET	11.7	-411.3	35.4
				CHANNELS 3  Xrotation Yrotation Zrotation
				JOINT right_toes
				{
					OFFSET	0	-60	-88.6
					CHANNELS 3  Xrotation Yrotation Zrotation
					JOINT right_foot_ee
					{
						OFFSET	22.5	-16.5	-42.2
						CHANNELS 3  Xrotation Yrotation Zrotation
						End Site
						{
							OFFSET	1	0	0
						}
					}
				}
			}
		}
	}
}
MOTION
Frames: 10
Frame Time: 0.02
3177.02 653.055 -1669.29 -104.60214989 84.7071802259 112.708623224 1.24659 -0.584645 -2.32792 1.2495 -0.435372 -2.36038 1.26818 0.017213 -2.40011 1.26032 -0.361947 -2.37274 -9.25985 -4.03032 1.12489 -9.27093 -8.33642 0.146258 -0.0 0.0 -0.0 2.77561 5.65633 5.72181 -26.6586 -5.43382 72.3223 0.181171 -5.1285 0.00811362 -31.215 -2.06895 3.36104 1.55898 -6.87253 7.62846 -0.0 0.0 -0.0 0.177631 14.1802 1.29664 31.35 10.8599 -66.3011 3.08381 56.7789 -1.66696 28.5961 -0.107607 3.61367 4.84932 12.4421 -28.4559 0.0 0.0 0.0 40.1126 -12.0102 -5.12575 -16.7008 0.320328 2.53383 13.6274 15.131 -1.9279 -40.1565 0.0 0.0 -0.0 0.0 -0.0 -17.1236 24.1817 -17.9081 -2.40428 -0.0915003 -0.357604 33.1721 -16.4446 4.29113 -5.41028 0.0 0.0 0.0 0.0 0.0 
3151.4607767 657.217 -1665.35129093 -98.5710760243 84.1652608526 106.760412089 1.40844 -0.486111 -2.34365 1.41143 -0.336037 -2.36981 1.42586 0.110051 -2.39098 1.41798 -0.268831 -2.37837 -6.77633 -3.6694 2.0723 -6.75749 -8.31084 1.34697 -0.0 0.0 -0.0 3.53858 5.5317 7.10957 -26.5263 -5.31448 71.4503 0.194055 -5.49107 0.00930596 -32.1655 -2.15908 3.44312 1.8348 -5.6921 10.0116 -0.0 0.0 -0.0 0.252495 13.6753 1.08086 29.0559 10.5065 -66.1332 3.00995 56.1399 -1.6054 28.6152 -0.107074 3.61605 4.71438 12.1485 -27.5903 0.0 0.0 0.0 38.8059 -11.5925 -5.28735 -14.6273 0.320937 2.21571 12.973 18.2945 -1.8559 -39.3344 0.0 0.0 -0.0 0.0 -0.0 -16.7368 24.7865 -17.1879 -3.27269 -0.120845 -0.487648 28.4721 -20.6725 3.84211 -6.13718 0.0 0.0 0.0 0.0 0.0 
3127.91772129 662.814 -1663.1387277 -96.7246071778 83.8750133079 105.023801042 1.60629 -0.431252 -2.47166 1.60965 -0.27315 -2.49407 1.62187 0.186435 -2.50204 1.6132 -0.210929 -2.5001 -5.22672 -3.53159 2.76007 -5.18301 -8.56377 2.18718 -0.0 0.0 -0.0 4.24607 5.37498 8.403 -25.8909 -6.5106 70.376 0.222984 -6.30348 0.0122783 -35.1306 -2.44882 3.68946 2.37664 -2.60893 15.0366 -0.0 0.0 -0.0 0.246963 13.9394 1.12253 26.0828 10.0525 -66.587 2.86405 54.8119 -1.48519 27.9785 -0.124396 3.53657 4.47017 12.2682 -25.7 0.0 0.0 0.0 37.3493 -11.139 -5.49859 -14.0957 0.31924 2.13417 17.0484 21.2514 -2.42905 -38.6473 0.0 0.0 -0.0 0.0 -0.0 -15.3333 24.8961 -17.3836 -6.34767 -0.208824 -0.951302 25.8124 -20.9979 3.53517 -7.43017 0.0 0.0 0.0 0.0 0.0 
3098.54798612 674.393 -1662.08511229 -98.6546646595 83.986458266 107.374602901 1.49285 -0.424352 -2.65442 1.49673 -0.254646 -2.67603 1.5091 0.243143 -2.6771 1.49915 -0.182549 -2.68191 -3.63659 -3.6845 3.48797 -3.55656 -9.40626 3.04465 -0.0 0.0 -0.0 4.993 5.26491 9.78035 -24.6427 -6.86424 69.3642 0.260517 -7.35368 0.0167411 -36.0775 -2.54399 3.76495 2.3948 -0.654273 15.9579 -0.0 0.0 -0.0 0.348884 11.8923 0.676057 23.2062 10.1478 -67.9159 2.68312 53.0341 -1.33893 25.7786 -0.177424 3.26056 4.42634 12.2399 -25.3894 0.0 0.0 0.0 35.0497 -10.7587 -6.13742 -14.7297 0.321178 2.23142 18.7412 21.3277 -2.6531 -37.0053 0.0 0.0 -0.0 0.0 -0.0 -14.6487 24.8246 -17.5495 -6.74641 -0.218405 -1.01174 21.159 -24.9172 3.01891 -9.55407 0.0 0.0 0.0 0.0 0.0 
3051.25738277 690.493 -1661.8207616 -101.639821035 84.0652183864 110.588328926 1.38962 -0.622118 -2.76721 1.39377 -0.444844 -2.80115 1.41631 0.0836646 -2.83499 1.40528 -0.364939 -2.81267 -2.53953 -3.10145 5.00498 -2.40243 -9.54841 4.81656 -0.0 0.0 -0.0 5.27725 5.15201 10.3064 -20.8062 -8.04035 69.1499 0.378582 -10.622 0.0351934 -38.2624 -2.76829 3.93309 2.6321 2.45877 18.8435 -0.0 0.0 -0.0 0.294838 11.1011 0.699296 15.964 8.92469 -68.6974 2.55553 51.6852 -1.23789 24.1587 -0.209672 3.05616 4.20794 12.5642 -23.6169 0.0 0.0 0.0 31.9204 -10.0746 -6.4963 -15.4103 0.32206 2.33583 21.6666 24.4895 -3.07731 -35.3886 0.0 0.0 -0.0 0.0 -0.0 -13.2892 24.9134 -16.7331 -8.6075 -0.257547 -1.29464 13.2378 -27.3739 1.97507 -13.3644 0.0 0.0 0.0 0.0 0.0 
3003.91415233 689.437 -1662.59968561 -98.4926040451 85.2099647451 107.180795001 1.59722 -0.710604 -3.03239 1.60219 -0.516299 -3.07141 1.63054 0.0519759 -3.11403 1.61728 -0.440241 -3.08322 -1.84885 -1.90636 6.07127 -1.68168 -8.26409 6.16595 -0.0 0.0 -0.0 5.9758 5.39931 11.6089 -16.7625 -9.74352 67.6424 0.55437 -15.3561 0.0747381 -39.7159 -2.921 4.04018 2.70231 7.52679 21.2048 -0.0 0.0 -0.0 -0.371816 9.43938 1.88924 9.93312 8.50978 -69.7576 2.07952 45.8449 -0.879462 24.344 -0.206276 3.07958 3.98955 11.3107 -22.6496 0.0 0.0 0.0 26.8838 -10.9803 -5.38826 -14.1628 0.319495 2.14446 30.8581 22.8828 -4.15622 -33.7411 0.0 0.0 -0.0 0.0 -0.0 -9.54468 19.9569 -17.2248 -23.9835 -0.227119 -3.64666 12.4126 -25.5309 1.83695 -14.461 0.0 0.0 0.0 0.0 0.0 
3003.89277982 689.437 -1663.17768166 -96.2225586649 85.2344673555 104.902836364 1.59722 -0.710604 -3.03239 1.60219 -0.516299 -3.07141 1.63054 0.0519759 -3.11403 1.61728 -0.440241 -3.08322 -1.84885 -1.90636 6.07127 -1.68168 -8.26409 6.16595 -0.0 0.0 -0.0 5.9758 5.39931 11.6089 -16.7625 -9.74352 67.6424 0.55437 -15.3561 0.0747381 -39.7159 -2.921 4.04018 2.70231 7.52679 21.2048 -0.0 0.0 -0.0 -0.371816 9.43938 1.88924 9.93312 8.50978 -69.7576 2.07952 45.8449 -0.879462 24.344 -0.206276 3.07958 3.98955 11.3107 -22.6496 0.0 0.0 0.0 26.8838 -10.9803 -5.38826 -14.1628 0.319495 2.14446 30.8581 22.8828 -4.15622 -33.7411 0.0 0.0 -0.0 0.0 -0.0 -9.54468 19.9569 -17.2248 -23.9835 -0.227119 -3.64666 12.4126 -25.5309 1.83695 -14.461 0.0 0.0 0.0 0.0 0.0 
3003.86571299 689.437 -1663.99966015 -92.9622972899 85.2562551955 101.631323186 1.59722 -0.710604 -3.03239 1.60219 -0.516299 -3.07141 1.63054 0.0519759 -3.11403 1.61728 -0.440241 -3.08322 -1.84885 -1.90636 6.07127 -1.68168 -8.26409 6.16595 -0.0 0.0 -0.0 5.9758 5.39931 11.6089 -16.7625 -9.74352 67.6424 0.55437 -15.3561 0.0747381 -39.7159 -2.921 4.04018 2.70231 7.52679 21.2048 -0.0 0.0 -0.0 -0.371816 9.43938 1.88924 9.93312 8.50978 -69.7576 2.07952 45.8449 -0.879462 24.344 -0.206276 3.07958 3.98955 11.3107 -22.6496 0.0 0.0 0.0 26.8838 -10.9803 -5.38826 -14.1628 0.319495 2.14446 30.8581 22.8828 -4.15622 -33.7411 0.0 0.0 -0.0 0.0 -0.0 -9.54468 19.9569 -17.2248 -23.9835 -0.227119 -3.64666 12.4126 -25.5309 1.83695 -14.461 0.0 0.0 0.0 0.0 0.0 
2981.48901148 690.09 -1664.40869378 -78.3022964147 85.5781234713 86.8821592839 1.66258 -0.465576 -3.33307 1.66872 -0.252663 -3.3559 1.68391 0.360406 -3.34606 1.66832 -0.172257 -3.36098 -4.06361 -2.02462 5.96965 -3.92177 -8.26778 5.83358 -0.0 0.0 -0.0 6.17783 6.72831 11.9744 -15.0741 -12.9284 67.2475 0.7618 -20.6751 0.13896 -40.3961 -2.99339 4.08896 2.51435 9.3748 20.5365 -0.0 0.0 -0.0 -0.987733 5.8405 2.6943 9.55465 8.13462 -71.6343 1.8447 42.4172 -0.715883 25.4841 -0.183716 3.22347 3.66767 12.7387 -19.6352 0.0 0.0 0.0 24.3935 -11.2849 -5.30404 -14.9739 0.321637 2.26889 34.7752 20.3044 -4.52368 -33.1421 0.0 0.0 -0.0 0.0 -0.0 -7.35391 18.245 -16.5758 -28.2901 -0.105753 -4.29628 6.93136 -24.4674 1.03735 -16.7786 0.0 0.0 0.0 0.0 0.0 
2981.49523641 690.09 -1664.16540789 -79.2079363596 85.5920257227 87.7904943822 1.66258 -0.465576 -3.33307 1.66872 -0.252663 -3.3559 1.68391 0.360406 -3.34606 1.66832 -0.172257 -3.36098 -4.06361 -2.02462 5.96965 -3.92177 -8.26778 5.83358 -0.0 0.0 -0.0 6.17783 6.72831 11.9744 -15.0741 -12.9284 67.2475 0.7618 -20.6751 0.13896 -40.3961 -2.99339 4.08896 2.51435 9.3748 20.5365 -0.0 0.0 -0.0 -0.987733 5.8405 2.6943 9.55465 8.13462 -71.6343 1.8447 42.4172 -0.715883 25.4841 -0.183716 3.22347 3.66767 12.7387 -19.6352 0.0 0.0 0.0 24.3935 -11.2849 -5.30404 -14.9739 0.321637 2.26889 34.7752 20.3044 -4.52368 -33.1421 0.0 0.0 -0.0 0.0 -0.0 -7.35391 18.245 -16.5758 -28.2901 -0.105753 -4.29628 6.93136 -24.4674 1.03735 -16.7786 0.0 0.0 0.0 0.0 0.0 
